<?xml version="1.0" encoding="UTF-8" standalone="no"?><!DOCTYPE svg PUBLIC "-//W3C//DTD SVG 1.1//EN" "http://www.w3.org/Graphics/SVG/1.1/DTD/svg11.dtd"><svg width="100%" height="100%" viewBox="0 0 14 18" version="1.1" xmlns="http://www.w3.org/2000/svg" xmlns:xlink="http://www.w3.org/1999/xlink" xml:space="preserve" xmlns:serif="http://www.serif.com/" style="fill-rule:evenodd;clip-rule:evenodd;stroke-linecap:round;stroke-linejoin:round;stroke-miterlimit:1.5;"><g id="Layer1"></g><rect id="Artboard1" x="-2.7" y="-1.032" width="19.2" height="19.2" style="fill:none;"/><g><g><path d="M0.9,16.728l0,-6.977c-0,-0.87 0.376,-1.704 1.046,-2.318c0.67,-0.615 1.578,-0.961 2.525,-0.961l4.858,0c0.947,0 1.855,0.346 2.525,0.961c0.67,0.614 1.046,1.448 1.046,2.318l0,4.817" style="fill:none;stroke:#000;stroke-width:1.8px;"/><path d="M0.9,11.749c0,-0 0.931,-0.325 1.783,-0.623c0.892,-0.311 1.866,-0.287 2.74,0.068c0,0 0,0 0.001,0c0.884,0.359 1.864,0.402 2.776,0.123c0.203,-0.062 0.412,-0.127 0.618,-0.19c1.015,-0.311 2.111,-0.224 3.066,0.242c0.425,0.208 0.776,0.38 0.776,0.38" style="fill:none;stroke:#000;stroke-width:1.5px;"/></g><path d="M7.626,-0c0,-0 0.103,0.857 0.197,1.65c0.034,0.282 -0.081,0.562 -0.303,0.739c-0.223,0.177 -0.521,0.227 -0.789,0.131c-0,-0 -0,-0 -0,-0c-0.272,-0.098 -0.473,-0.329 -0.533,-0.611c-0.06,-0.282 0.031,-0.575 0.239,-0.774c0.574,-0.548 1.189,-1.135 1.189,-1.135Z"/><path d="M7.98,3.532c0,-0.281 -0.229,-0.51 -0.51,-0.51l-1.02,0c-0.281,0 -0.51,0.229 -0.51,0.51l0,3.352c0,0.281 0.229,0.51 0.51,0.51l1.02,-0c0.281,-0 0.51,-0.229 0.51,-0.51l0,-3.352Z"/></g></svg>